<svg width="30" height="30" xmlns="http://www.w3.org/2000/svg">

 <g>
  <title>background</title>
  <rect fill="none" id="canvas_background" height="402" width="582" y="-1" x="-1"/>
 </g>
 <g>
  <title>Layer 1</title>
  <path fill="#6d6d6d" id="svg_1" d="m11,24c-2.206,0 -4,-1.794 -4,-4l0,-13l-1,0c-1.105,0 -2,0.895 -2,2l0,16c0,1.105 0.895,2 2,2l13,0c1.105,0 2,-0.895 2,-2l0,-1l-10,0z"/>
  <path fill="#6d6d6d" id="svg_2" d="m25.707,7.793l-5.5,-5.5c-0.188,-0.188 -0.442,-0.293 -0.707,-0.293l-8.5,0c-1.105,0 -2,0.895 -2,2l0,16c0,1.105 0.895,2 2,2l13,0c1.105,0 2,-0.895 2,-2l0,-11.5c0,-0.265 -0.105,-0.519 -0.293,-0.707zm-5.707,1.207c-0.552,0 -1,-0.448 -1,-1l0,-4.096l5.096,5.096l-4.096,0z"/>
 </g>
</svg>